<svg width="16" height="16" viewBox="0 0 16 16" fill="none" xmlns="http://www.w3.org/2000/svg">
<path d="M11.0899 10.1761L15.798 14.8842C16.4138 15.4802 15.4802 16.4138 14.8842 15.798L10.1761 11.0899C7.6929 13.1162 4.07739 12.9175 1.83259 10.6529C-0.610863 8.22927 -0.610863 4.25618 1.83259 1.83259C4.25618 -0.610863 8.22927 -0.610863 10.6529 1.83259C12.9175 4.07739 13.1162 7.6929 11.0899 10.1761ZM2.7464 2.7464C0.819451 4.67335 0.819451 7.8121 2.7464 9.73905C4.67335 11.666 7.8121 11.666 9.73905 9.73905C11.666 7.8121 11.666 4.67335 9.73905 2.7464C7.8121 0.819451 4.67335 0.819451 2.7464 2.7464Z" />
</svg>
